<?xml version="1.0" encoding="UTF-8" standalone="no"?>
<!-- Created with Inkscape (http://www.inkscape.org/) -->

<svg
   width="47.48064mm"
   height="48.025372mm"
   viewBox="0 0 47.48064 48.025372"
   version="1.1"
   id="svg2743"
   inkscape:version="1.1.2 (b8e25be833, 2022-02-05)"
   sodipodi:docname="turple_logo.svg"
   xmlns:inkscape="http://www.inkscape.org/namespaces/inkscape"
   xmlns:sodipodi="http://sodipodi.sourceforge.net/DTD/sodipodi-0.dtd"
   xmlns="http://www.w3.org/2000/svg"
   xmlns:svg="http://www.w3.org/2000/svg">
  <sodipodi:namedview
     id="namedview2745"
     pagecolor="#505050"
     bordercolor="#eeeeee"
     borderopacity="1"
     inkscape:pageshadow="0"
     inkscape:pageopacity="0"
     inkscape:pagecheckerboard="0"
     inkscape:document-units="mm"
     showgrid="false"
     fit-margin-top="0"
     fit-margin-left="0"
     fit-margin-right="0"
     fit-margin-bottom="0"
     inkscape:zoom="0.64052329"
     inkscape:cx="135.04583"
     inkscape:cy="266.96922"
     inkscape:window-width="2160"
     inkscape:window-height="1351"
     inkscape:window-x="-9"
     inkscape:window-y="-9"
     inkscape:window-maximized="1"
     inkscape:current-layer="layer1" />
  <defs
     id="defs2740" />
  <g
     inkscape:label="Layer 1"
     inkscape:groupmode="layer"
     id="layer1"
     transform="translate(-69.201267,-77.603442)">
    <g
       id="g2312"
       transform="matrix(2.3162586,3.9877532,-3.9877532,2.3162586,527.46872,-761.44287)"
       style="fill:#000000;fill-opacity:1"
       inkscape:export-filename="D:\WorkSpace Code\GitHub\Turple_web_02\media\playlogo.png"
       inkscape:export-xdpi="300"
       inkscape:export-ydpi="300">
      <path
         id="path2292"
         style="fill:#000000;fill-opacity:1;stroke-width:0.0468205;stroke-linecap:round;stroke-linejoin:round"
         d="m 116.03152,171.72752 -1.13676,0.64548 -1.12738,-0.66172 0.009,-1.30721 1.13676,-0.64548 1.12738,0.66173 z" />
      <path
         sodipodi:type="star"
         style="fill:#000000;fill-opacity:1;stroke-width:1.05449;stroke-linecap:round;stroke-linejoin:round"
         id="path2294"
         inkscape:flatsided="true"
         sodipodi:sides="6"
         sodipodi:cx="120.05475"
         sodipodi:cy="420.05362"
         sodipodi:r1="29.441587"
         sodipodi:r2="25.497162"
         sodipodi:arg1="0.5307735"
         sodipodi:arg2="1.0543723"
         inkscape:rounded="0"
         inkscape:randomized="0"
         transform="matrix(0.06207934,0,0,0.06207934,105.74303,147.39245)"
         d="m 145.44564,434.95697 -25.60212,14.53748 -25.390895,-14.90335 0.211234,-29.44083 25.602121,-14.53748 25.39089,14.90335 z" />
      <path
         sodipodi:type="star"
         style="fill:#000000;fill-opacity:1;stroke-width:1.05449;stroke-linecap:round;stroke-linejoin:round"
         id="path2296"
         inkscape:flatsided="true"
         sodipodi:sides="6"
         sodipodi:cx="120.05475"
         sodipodi:cy="420.05362"
         sodipodi:r1="29.441587"
         sodipodi:r2="25.497162"
         sodipodi:arg1="0.5307735"
         sodipodi:arg2="1.0543723"
         inkscape:rounded="0"
         inkscape:randomized="0"
         transform="matrix(0.06207934,0,0,0.06207934,109.11341,147.41516)"
         d="m 145.44564,434.95697 -25.60212,14.53748 -25.390895,-14.90335 0.211234,-29.44083 25.602121,-14.53748 25.39089,14.90335 z" />
      <path
         sodipodi:type="star"
         style="fill:#000000;fill-opacity:1;stroke-width:1.05449;stroke-linecap:round;stroke-linejoin:round"
         id="path2298"
         inkscape:flatsided="true"
         sodipodi:sides="6"
         sodipodi:cx="120.05475"
         sodipodi:cy="420.05362"
         sodipodi:r1="29.441587"
         sodipodi:r2="25.497162"
         sodipodi:arg1="0.5307735"
         sodipodi:arg2="1.0543723"
         inkscape:rounded="0"
         inkscape:randomized="0"
         transform="matrix(0.06207934,0,0,0.06207934,107.41187,150.33893)"
         d="m 145.44564,434.95697 -25.60212,14.53748 -25.390895,-14.90335 0.211234,-29.44083 25.602121,-14.53748 25.39089,14.90335 z" />
      <path
         style="fill:#000000;fill-opacity:1;stroke-width:0.279;stroke-linecap:round;stroke-linejoin:round"
         d="m 111.60658,174.66924 v 1.70138 l 1.47041,0.83995 0.0232,-1.69056 z"
         id="path2300"
         sodipodi:nodetypes="ccccc" />
      <path
         style="fill:#000000;fill-opacity:1;stroke-width:0.279;stroke-linecap:round;stroke-linejoin:round"
         d="m 118.14258,174.66924 v 1.70138 l -1.47041,0.83995 -0.0232,-1.69056 z"
         id="path2302"
         sodipodi:nodetypes="ccccc" />
      <path
         style="fill:#000000;fill-opacity:1;stroke-width:0.279;stroke-linecap:round;stroke-linejoin:round"
         d="m 112.33418,177.06515 c 0,0 -0.84788,0.56623 -0.91153,1.01699 -0.10272,0.72746 0.23037,2.07743 0.95912,1.98438 0.32177,-0.0411 0.99426,-2.23934 1.42282,-2.16142 z"
         id="path2304"
         sodipodi:nodetypes="csscc" />
      <path
         style="fill:#000000;fill-opacity:1;stroke-width:0.279;stroke-linecap:round;stroke-linejoin:round"
         d="m 117.33968,177.06515 c 0,0 0.84788,0.56623 0.91153,1.01699 0.10272,0.72746 -0.23037,2.07743 -0.95912,1.98438 -0.32177,-0.0411 -0.99426,-2.23934 -1.42282,-2.16142 z"
         id="path2306"
         sodipodi:nodetypes="csscc" />
      <path
         id="path2308"
         style="fill:#000000;fill-opacity:1;stroke-width:0.279;stroke-linecap:round;stroke-linejoin:round"
         d="m 111.70636,171.90319 c -2.83337,-0.0155 -2.43238,4.99084 -1.87844,4.25297 l 1.54874,-2.0624 0.0114,-1.64073 0.66508,-0.37776 0.0155,-0.14469 c -0.12607,-0.0179 -0.24708,-0.0268 -0.36225,-0.0274 z" />
      <path
         id="path2310"
         style="fill:#000000;fill-opacity:1;stroke-width:0.279;stroke-linecap:round;stroke-linejoin:round"
         d="m 118.03416,171.90319 c 2.83337,-0.0155 2.43238,4.99084 1.87844,4.25297 l -1.54874,-2.0624 -0.0114,-1.64073 -0.66508,-0.37776 -0.0155,-0.14469 c 0.12607,-0.0179 0.24708,-0.0268 0.36225,-0.0274 z" />
    </g>
  </g>
</svg>
