<?xml version="1.0" encoding="UTF-8" standalone="no"?>
<!-- Created with Inkscape (http://www.inkscape.org/) -->

<svg
   width="160.91428mm"
   height="41.560238mm"
   viewBox="0 0 160.91428 41.560238"
   version="1.1"
   id="svg2335"
   inkscape:version="1.1.2 (b8e25be833, 2022-02-05)"
   sodipodi:docname="turple_text_logo.svg"
   xmlns:inkscape="http://www.inkscape.org/namespaces/inkscape"
   xmlns:sodipodi="http://sodipodi.sourceforge.net/DTD/sodipodi-0.dtd"
   xmlns="http://www.w3.org/2000/svg"
   xmlns:svg="http://www.w3.org/2000/svg">
  <sodipodi:namedview
     id="namedview2337"
     pagecolor="#505050"
     bordercolor="#eeeeee"
     borderopacity="1"
     inkscape:pageshadow="0"
     inkscape:pageopacity="0"
     inkscape:pagecheckerboard="0"
     inkscape:document-units="mm"
     showgrid="false"
     fit-margin-top="0"
     fit-margin-left="0"
     fit-margin-right="0"
     fit-margin-bottom="0"
     inkscape:zoom="1.2810466"
     inkscape:cx="293.11971"
     inkscape:cy="148.31623"
     inkscape:window-width="2160"
     inkscape:window-height="1351"
     inkscape:window-x="-9"
     inkscape:window-y="-9"
     inkscape:window-maximized="1"
     inkscape:current-layer="layer1" />
  <defs
     id="defs2332" />
  <g
     inkscape:label="Layer 1"
     inkscape:groupmode="layer"
     id="layer1"
     transform="translate(-21.572078,-106.03351)">
    <g
       id="g173475"
       style="fill:#000000;fill-opacity:1"
       transform="matrix(5.0681877,0,0,5.0681877,-658.27514,-307.97797)">
      <g
         aria-label="TURPLE"
         id="g173471"
         style="font-size:50.8px;font-family:'Reem Kufi';-inkscape-font-specification:'Reem Kufi, @wght=700';font-variation-settings:'wght' 700;word-spacing:0px;fill:#000000;fill-opacity:1;stroke-width:0.264583"
         transform="matrix(0.21648148,0,0,0.21648148,129.25854,71.155854)">
        <path
           d="m 22.549562,48.737063 h 16.103599 v 7.112 0 30.276799 h -7.366 V 55.849063 h -8.737599 z"
           id="path173459"
           sodipodi:nodetypes="ccccccccc"
           style="fill:#000000;fill-opacity:1" />
        <path
           d="m 49.150494,72.308262 q 0,1.778 1.0668,3.4036 1.0668,1.6256 2.794,2.6416 1.778,1.016 3.8608,1.016 2.286,0 4.064,-1.016 1.778,-1.016 2.794,-2.6416 1.0668,-1.6256 1.0668,-3.4036 V 48.737063 h 7.2644 v 23.723599 q 0,4.1148 -2.032,7.3152 -2.032,3.1496 -5.4864,4.9784 -3.4544,1.778 -7.6708,1.778 v 0 q -4.1656,0 -7.62,-1.778 -3.4036,-1.8288 -5.4356,-4.9784 -2.032,-3.2004 -2.032,-7.3152 V 48.737063 h 7.366 z"
           id="path173461"
           style="fill:#000000;fill-opacity:1" />
        <path
           d="m 85.955117,48.737063 q 4.7244,0 7.975603,1.5748 3.2512,1.524 4.9276,4.3688 1.7272,2.794 1.7272,6.654799 0,2.286 -0.7112,4.572 -0.6604,2.286 -2.2352,4.1656 -1.524,1.8796 -4.064003,3.048 -2.54,1.1176 -6.2992,1.1176 h -5.2832 v 11.8872 H 74.626718 V 48.737063 Z m 1.27,18.389599 q 2.2352,0 3.4544,-0.9144 1.27,-0.9652 1.778,-2.2352 0.508,-1.3208 0.508,-2.3876 0,-0.6096 -0.2032,-1.523999 -0.1524,-0.9652 -0.7112,-1.9304 -0.5588,-0.9652 -1.7272,-1.6256 -1.1176,-0.6604 -3.048,-0.6604 h -5.2832 v 11.277599 z m 6.908803,4.572 9.2456,14.4272 h -8.5852 l -9.448803,-14.224 z"
           id="path173463"
           style="fill:#000000;fill-opacity:1" />
        <path
           id="path173465"
           style="fill:#000000;fill-opacity:1;stroke-width:1.09717"
           d="m 471.88672,401.10547 c -19.23995,0 -33.98438,4.77641 -44.23633,14.32617 -10.25194,9.40932 -15.37891,22.04852 -15.37891,37.91797 0,6.31969 0.9831,12.70979 2.94922,19.16992 1.82569,6.31969 4.84547,12.07725 9.0586,17.27344 4.07269,5.19619 9.61874,9.40861 16.64062,12.63867 6.88144,3.08963 15.37873,4.63477 25.49024,4.63477 h 21.9082 v 49.08203 h 30.54492 V 401.10547 Z m -8.8711,18.76953 c 4.3975,0.0208 8.56301,1.67283 11.2129,6.29297 0.36298,0.63249 0.70098,1.32313 1.0039,2.07031 l -0.8418,0.375 -4.18359,-2.43945 -9.01953,5.15429 -16.21875,-1.91992 c -4.07929,-0.48258 7.63178,-9.58241 18.04687,-9.5332 z m 7.42969,7.85547 9.9961,5.83203 -0.0527,11.57227 -10.04883,5.74218 -9.99609,-5.83203 0.0527,-11.57422 z m 18.57422,5.00391 7.15039,4.16992 -0.0371,8.27734 -7.1875,4.10938 -7.14843,-4.17188 0.0371,-8.27734 z m -30.25195,1.68359 0.0918,10.88281 -9.33008,5.25 -0.0781,-10.72266 z m -17.82422,9.59961 c 2.89367,-0.0196 7.01953,2.0039 7.01953,2.0039 l 0.0781,10.72266 c -0.9363,-2.59426 -15.11104,0.71308 -16.35938,-0.91797 -2.82706,-3.69413 3.50479,-9.80945 7.81445,-11.56055 0.41726,-0.16953 0.9114,-0.24442 1.44727,-0.24804 z m 18.67773,2.2207 9.99414,5.83203 -0.0527,11.57227 -10.04688,5.74219 -9.99609,-5.83204 0.0527,-11.57421 z m 21.41797,0.0176 9.9961,5.83203 -0.0527,11.57422 -10.04883,5.74023 -9.99414,-5.83203 0.0527,-11.57226 z m 12.01172,12.66211 c 0.49894,0.63333 0.93318,1.26781 1.30274,1.89648 9.09565,15.464 -19.59084,29.19009 -17.3125,23.81055 l 6.36718,-15.03906 8.94727,-5.28125 -0.0469,-4.8418 z m -22.90625,5.81445 9.4082,5.4707 -9.31445,5.41211 -9.27539,-5.38085 z m -15.53711,3.31641 9.27344,5.3789 c 0,0 -0.40239,6.44259 -2.66797,8.22461 -3.65632,2.87591 -12.10789,5.34653 -13.91601,1.06055 -0.79829,-1.89246 9.10009,-12.56541 7.31054,-14.66406 z"
           transform="matrix(0.24115099,0,0,0.24115099,2.8879763,-47.990114)" />
        <path
           d="m 130.90603,48.737063 h 7.366 v 30.276799 h 9.98728 v 7.112 h -17.35328 z"
           id="path173467"
           sodipodi:nodetypes="ccccccc"
           style="fill:#000000;fill-opacity:1" />
        <path
           d="m 150.73534,48.737063 18.47741,-0.08433 v 7.112 l -11.11141,0.08433 v 7.975599 h 8.6659 v 7.112 h -8.6659 v 8.0772 l 11.11141,-0.08433 v 7.112 l -18.47741,0.08433 z"
           id="path173469"
           sodipodi:nodetypes="ccccccccccccc"
           style="fill:#000000;fill-opacity:1" />
      </g>
    </g>
    <g
       id="g173497"
       transform="matrix(0.84143735,1.4486485,-1.4486485,0.84143735,280.50657,-193.71214)"
       style="fill:#dedbe3;fill-opacity:1" />
  </g>
</svg>
